<?xml version="1.0" standalone="no"?>
<!DOCTYPE svg PUBLIC "-//W3C//DTD SVG 20010904//EN"
 "http://www.w3.org/TR/2001/REC-SVG-20010904/DTD/svg10.dtd">
<svg version="1.0" xmlns="http://www.w3.org/2000/svg"
 width="249.000000pt" height="249.000000pt" viewBox="0 0 249.000000 249.000000"
 preserveAspectRatio="xMidYMid meet">
<metadata>
Created by potrace 1.14, written by Peter Selinger 2001-2017
</metadata>
<g transform="translate(0.000000,249.000000) scale(0.100000,-0.100000)"
fill="#000000" stroke="none">
<path d="M2354 1602 c-113 -349 -257 -788 -261 -794 -2 -5 20 -8 49 -8 l53 0
64 198 c35 108 95 291 133 406 39 115 76 228 83 252 l13 44 -51 0 -52 0 -31
-98z"/>
<path d="M10 1663 c10 -35 95 -298 203 -625 l81 -248 448 0 448 0 0 450 0 450
-594 0 -595 0 9 -27z"/>
<path d="M1244 1253 l1 -348 52 -3 52 -3 0 298 c0 164 0 307 1 318 1 47 26
-25 55 -155 6 -28 43 -184 70 -295 15 -60 28 -118 30 -128 7 -33 17 -37 105
-37 l88 0 7 33 c4 17 11 46 16 62 10 34 78 313 85 350 2 14 9 36 14 50 5 14 8
25 6 25 -7 0 22 94 30 97 6 2 9 -114 9 -294 -1 -164 1 -304 3 -310 3 -8 23
-13 53 -13 l49 0 0 350 0 350 -99 0 c-55 0 -102 -4 -105 -8 -3 -5 -8 -23 -11
-39 -3 -17 -21 -96 -41 -175 -20 -78 -38 -154 -40 -167 -3 -14 -7 -28 -9 -32
-3 -4 -7 -24 -11 -45 -3 -22 -11 -48 -17 -59 -6 -11 -9 -21 -8 -23 2 -1 0 -20
-4 -43 -7 -38 -26 -50 -30 -18 -2 7 -8 34 -15 59 -7 25 -13 50 -14 55 -1 6
-29 119 -61 253 l-59 242 -101 0 -102 0 1 -347z"/>
</g>
</svg>
