
<svg version="1.0" xmlns="http://www.w3.org/2000/svg"
 width="700.000000pt" height="700.000000pt" viewBox="0 0 700.000000 700.000000"
 preserveAspectRatio="xMidYMid meet">

<g transform="translate(0.000000,700.000000) scale(0.100000,-0.100000)"
fill="#000000" stroke="none">
<path d="M5305 5719 c-1154 -174 -943 -163 -1747 -91 l-527 48 -1178 -609
c-648 -335 -1182 -613 -1187 -618 -6 -5 136 -623 349 -1527 l359 -1519 980
-351 c540 -194 988 -352 996 -352 8 0 637 217 1398 482 l1382 483 0 40 c0 22
50 946 110 2054 61 1107 110 2036 110 2062 0 47 -1 49 -27 48 -16 -1 -473 -68
-1018 -150z"/>
</g>
</svg>
