<svg xmlns="http://www.w3.org/2000/svg" version="1.1" xmlns:xlink="http://www.w3.org/1999/xlink" xmlns:svgjs="http://svgjs.dev/svgjs" viewBox="0 0 800 800" opacity="1"><defs><linearGradient x1="50%" y1="0%" x2="50%" y2="100%" id="uundulate-grad"><stop stop-color="hsl(184, 74%, 44%)" stop-opacity="1" offset="45%"></stop><stop stop-color="hsl(332, 87%, 70%)" stop-opacity="1" offset="100%"></stop></linearGradient></defs><g stroke-width="3" stroke="url(#uundulate-grad)" fill="none"><path d="M748.7535581616928 178.9964222665019C809.4435383196792 352.580584987989 805.2892038518062 472.794821819733 732.7609591724924 641.7752614067872C660.2327144931787 810.7557009938414 496.88259034764496 1014.0828110432349 400.6179837009877 990.102532284362C304.3533770543304 966.1222535254897 351.44900665646196 707.9041164432931 270.6908472685384 526.6699233642003C189.93268788061494 345.4357302851072 -22.595807849716437 269.7822894673295 12.978818638954351 120.17840550471487C48.55344512762514 -29.425478457899658 288.1626503469207 -203.6824731483896 441.4490544141581 -191.42871965635072C594.7354584813954 -179.17496616431185 688.0635780037062 5.4122595450148765 748.7535581616928 178.9964222665019C809.4435383196792 352.580584987989 805.2892038518062 472.794821819733 732.7609591724924 641.7752614067872 "></path><path d="M738.4960395335456 185.49654454789857C797.4010202751206 353.9752907187535 793.3688721151264 470.6538147025052 722.9738111028512 634.6642413605282C652.578750090576 798.6746680185515 494.0330413610874 996.021568948845 400.599746674626 972.74659250641C307.16645198816445 949.4716160639748 352.87691601376275 698.8481300724311 274.49399660783695 522.944354436841C196.11107720191114 347.0405788012507 -10.166580418704541 273.6122391839958 24.36173352618181 128.40846945557587C58.89004747106816 -16.7953002728442 291.4519231250904 -185.92708923714326 440.22990354329136 -174.03374025957618C589.0078839614923 -162.14039128200903 679.5910587919703 17.01779837704339 738.4960395335456 185.49654454789857C797.4010202751206 353.9752907187535 793.3688721151264 470.6538147025052 722.9738111028512 634.6642413605282 "></path><path d="M728.2386429757107 191.99660579413876C785.3586243008745 355.36993541436186 781.4486624487588 468.51274655012094 713.1867851035222 627.5531602791132C644.9249077582858 786.5935740081052 491.1836144448423 977.9602658192991 400.58163171857666 955.3905916933013C309.979648992311 932.8209175673037 354.30494744137604 689.7920826664129 278.297268017448 519.2187244743253C202.28958859351997 348.6453662822378 2.2627690826197977 277.4421278655059 35.744770483721766 136.6384723712804C69.22677188482362 -4.165183122945052 294.74131797357245 -168.17176636105324 439.0108747427371 -156.63882189795788C583.2804315119016 -145.10587743486246 671.118661650547 28.623276173915656 728.2386429757107 191.99660579413876C785.3586243008745 355.36993541436186 781.4486624487588 468.51274655012094 713.1867851035222 627.5531602791132 "></path><path d="M717.9810633124073 198.49675859311355C773.3160452211596 356.7646716627046 769.5282696769227 466.37176995047116 703.3995759987247 620.4421707504323C637.2708823205269 774.5125715503934 488.3340044231286 959.8990542424874 400.5633336570586 938.0346824329274C312.7926628909888 916.170310623367 355.73279576352047 680.736126813129 282.1003563215902 515.4931860645443C208.46791687965992 350.25024531595943 14.691935478475443 281.2721080997503 47.127624335792916 144.8685668397195C79.56331319311039 8.465025579688472 298.03052971658576 -150.41635193222885 437.79166283671407 -139.24381198360516C577.5527959568421 -128.07127203498152 662.646081403655 40.228845523522295 717.9810633124073 198.49675859311355C773.3160452211596 356.7646716627046 769.5282696769227 466.37176995047116 703.3995759987247 620.4421707504323 "></path><path d="M707.7236362369945 204.99688087451C761.2736187293356 358.1593773934691 757.608029492977 464.23076283324326 693.6125194818178 613.3311507041733C629.6170094706586 762.4315385751033 485.4845469893053 941.8378121480976 400.54518818343126 920.6787426549747C315.60582937755714 899.5196731618521 357.16079667355564 671.6801404422667 285.90359721362313 511.76761713718486C214.6463977536905 351.85509383210274 27.121254462221714 285.1020578164166 58.51063077575475 153.09863079058027C89.90000708928778 21.09520376474393 301.3198940474898 -132.66096802098252 436.5726035185817 -121.84883258683061C571.8253129896733 -111.0366971526787 654.1736537446535 51.83438435555081 707.7236362369945 204.99688087451C761.2736187293356 358.1593773934691 757.608029492977 464.23076283324326 693.6125194818178 613.3311507041733 "></path><path d="M697.4661786440035 211.49700315590655C749.2311617199332 359.55408312423367 745.6877587914532 462.08975571601536 683.8254324473327 606.2201306579145C621.9631061032121 750.3505055998135 482.63505903790406 923.7765700537079 400.5270121922257 903.3228028770227C318.41896534654745 882.8690357003372 358.5887670660127 662.624154071405 289.7068075880778 508.0420482098257C220.82484811014302 353.4599423482464 39.55054292838986 288.9320075330829 69.89360669813846 161.32869474144115C100.23667046788705 33.72538194979933 304.6092278608156 -114.90558410973625 435.35351368287115 -104.45385319005607C566.0977995049266 -94.00212227037588 645.7011955680739 63.439923187579325 697.4661786440035 211.49700315590655C749.2311617199332 359.55408312423367 745.6877587914532 462.08975571601536 683.8254324473327 606.2201306579145 "></path><path d="M687.2087515685906 217.99715595488124C737.188735228109 360.9488193725764 733.7675186075077 459.9487791163656 674.0383759304258 599.1091411292336C614.3092332533438 738.2695031421017 479.78560160408074 905.7153584768962 400.50886671859826 885.9668936166483C321.2321318331159 866.2184287564005 360.01676797604773 653.5681982181209 293.51004848011075 504.3165098000444C227.00332898417366 355.06482138196793 51.97986191213607 292.76198776732735 81.27661313810029 169.55878920988016C110.57336436406445 46.35559065243285 307.8985921917197 -97.1501696809118 434.13445436473876 -87.05884327570334C560.3703165377576 -76.96751687049488 637.2287679090724 75.04549253718596 687.2087515685906 217.99715595488124C737.188735228109 360.9488193725764 733.7675186075077 459.9487791163656 674.0383759304258 599.1091411292336 "></path><path d="M676.9512939755997 224.4971866835433C725.1462782187066 362.3434335506065 721.847247905984 457.8076804464033 664.2512888959408 591.9980295302404C606.6553298858973 726.1883786140775 476.9361136526795 887.6540248297722 400.4906907273928 868.6108622859617C324.0452678021061 849.5676997421513 361.4447383685048 644.5121202945247 297.31325885456545 500.59084931995073C233.18177934062618 356.669578345377 64.40915037830422 296.5918459312593 92.659589060484 177.78876160800655C120.91002774266371 58.985677284753876 311.1879260050455 -79.3948773223999 432.9153645290281 -69.66395543166317C554.6428030530108 -59.93303354092643 628.7563097324928 86.6509398164801 676.9512939755997 224.4971866835433C725.1462782187066 362.3434335506065 721.847247905984 457.8076804464033 664.2512888959408 591.9980295302404 "></path><path d="M666.6938669001869 230.99727844736185C713.1038517268825 363.7381087637931 709.9270077220385 455.6666428115973 654.4642323790338 584.8869789664035C599.001457036029 714.1073151212095 474.0866562188562 869.5927522178044 400.4725452537655 851.2548919904314C326.8584342886745 832.9170317630583 362.87273927853994 635.4561034060846 301.1164997465984 496.86524987501343C239.36026021465682 358.27439634394227 76.83846936205049 300.42176513034747 104.04259550044577 186.01879504128942C131.2467216388411 71.61582495223115 314.4772903359494 -61.639523928731705 431.69630521089573 -52.26900655246675C548.9153200858419 -42.898489176201736 620.2838820734913 98.2564481309305 666.6938669001869 230.99727844736185C713.1038517268825 363.7381087637931 709.9270077220385 455.6666428115973 654.4642323790338 584.8869789664035 "></path><path d="M656.4364398247741 237.49737021118017C701.0614252350582 365.13278397697945 698.0067675380928 453.52560517679126 644.6771758621268 577.7759284025665C591.3475841861608 702.0262516283415 471.2371987850331 851.5314796058365 400.45439978013803 833.898921694901C329.67160077524295 816.2663637839655 364.300740188575 626.4000865176442 304.9197406386312 493.1396504300759C245.5387410886874 359.87921434250757 89.26778834579676 304.25168432943565 115.4256019404076 194.24882847457206C141.5834155350185 84.24597261970848 317.76665466685347 -43.88417053506356 430.47724589276334 -34.87405767327027C543.1878371186731 -25.86394481147704 611.8114544144898 109.86195644538088 656.4364398247741 237.49737021118017C701.0614252350582 365.13278397697945 698.0067675380928 453.52560517679126 644.6771758621268 577.7759284025665 "></path><path d="M646.1789517142049 243.99749249257673C689.0189377080778 366.52748970774405 686.086466318991 451.38459805956336 634.8900583100635 570.6649083563074C583.6936503011362 689.9452186530516 468.38768031605355 833.4702375114468 400.43619327135434 816.5429819169487C332.48470622665513 799.6157263224504 365.7286800634539 617.3441001467822 308.7229204955079 489.4140815027167C251.7171609275618 361.484062858651 101.69704629438672 308.08163404610195 126.80854734521319 202.47889242543295C151.9200483960396 96.87615080476388 321.05595796260127 -26.12878662381729 429.2581255394747 -17.479078276495727C537.4602931163481 -8.82936992917422 603.3389657203321 121.4674952774094 646.1789517142049 243.99749249257673C689.0189377080778 366.52748970774405 686.086466318991 451.38459805956336 634.8900583100635 570.6649083563074 "></path><path d="M635.9215246387921 250.49755373881703C676.9765112162536 367.9221344033524 674.1662261350453 449.2435299071792 625.1030017931566 563.5538272748922C576.0397774512679 677.8641246426054 465.53822288223046 815.408934381901 400.418047797727 799.18698110384C335.29787271322357 782.9650278257793 367.1566809734891 608.288052740764 312.5261613875407 485.6884515402012C257.89564180159243 363.08885033963816 114.126365278133 311.911522727612 138.19155378517502 210.70889534113758C162.25674229221698 109.50626795466303 324.3453222935052 -8.373463747727214 428.0390662213422 -0.08415991487743213C531.7328101491794 8.205143917972407 594.8665380613306 133.07297307428166 635.9215246387921 250.49755373881703C676.9765112162536 367.9221344033524 674.1662261350453 449.2435299071792 625.1030017931566 563.5538272748922 "></path><path d="M625.6640060106449 256.9977065377917C664.933993171695 369.3168706516951 662.2458943983654 447.10255330752943 615.3158537235154 556.4428377462116C568.3858130486652 665.7831221848937 462.68867389567276 797.3477228050892 400.3998107713652 781.8310718434659C338.1109476470576 766.3144208818426 368.58459033078975 599.2320968874801 316.32931072683925 481.96291313042C264.0740311228887 364.69372937335993 126.55559270914489 315.74150296185655 149.57446867240242 218.93898980957658C172.59334463566 122.13647665729661 327.63459507167477 9.38195068109718 426.8199153504754 17.310849999475238C526.0052356292761 25.239749317853352 586.3940188495949 144.6785424238883 625.6640060106449 256.9977065377917C664.933993171695 369.3168706516951 662.2458943983654 447.10255330752943 615.3158537235154 556.4428377462116 "></path><path d="M615.4066094528102 263.49779830161015C652.891597197449 370.7115458648815 650.3256847319981 444.9615156727234 605.5288277241865 549.3317871823746C560.7319707163751 653.7020586920256 459.8392469794278 779.2864501931215 400.3816958153159 764.4751015479355C340.9241446512041 749.6637529027496 370.01262175840304 590.17607999904 320.1325821364502 478.2373136854826C270.2525425144974 366.2985473719251 138.98494221046928 319.57142216094485 160.95750562994237 227.16902324285934C182.93006904941552 134.76662432477383 330.92398992015694 27.13730407476538 425.60088654992114 34.705798878671715C520.2777831796855 42.27429368257805 577.9216217081715 156.2840507383387 615.4066094528102 263.49779830161015C652.891597197449 370.7115458648815 650.3256847319981 444.9615156727234 605.5288277241865 549.3317871823746 "></path><path d="M605.1491213422411 269.9979205830066C640.8491096704685 372.1062515956461 638.4053835128962 442.8205085554955 595.7417101721234 542.2207671361157C553.0780368313506 641.6210257167357 456.98972851044834 761.2252080987319 400.3634893065323 747.1191617699833C343.73725010261626 733.0131154412347 371.44056163328196 581.1200936281779 323.9357619933269 474.5117447581233C276.4309623533718 367.90339588806853 151.41420015905925 323.40137187761104 172.34045103474796 235.3990871937201C193.26670191043667 147.39680250982929 334.2132932159046 44.89268798601165 424.3817661966325 52.10077827544626C514.5502391773604 59.30886856488087 569.4491330140138 167.8895895703672 605.1491213422411 269.9979205830066C640.8491096704685 372.1062515956461 638.4053835128962 442.8205085554955 595.7417101721234 542.2207671361157 "></path><path d="M594.8916484904612 276.49795131166877C628.8066374022771 373.5008657736762 626.4850975525834 440.67940988553323 585.9546078788492 535.1096555371223C545.4241182051151 629.5399011887114 454.14022530025795 743.1638744516077 400.3452980565377 729.7631304392966C346.5503708128175 716.3623864269854 372.8685167669498 572.0640157045816 327.7389571089925 470.78608427802953C282.60939745103525 369.5081528514777 163.84347336643833 327.2312300415431 183.7234116983426 243.6290595918466C203.60335003024687 160.0268891421503 337.5026117704415 62.647980344523546 423.1626611021329 69.49566611948643C508.82271043382434 76.34335189444931 560.9766595786451 179.49503684966135 594.8916484904612 276.49795131166877C628.8066374022771 373.5008657736762 626.4850975525834 440.67940988553323 585.9546078788492 535.1096555371223 "></path><path d="M584.6341908974701 282.9980735930653C616.7641803928748 374.8955715044408 614.5648268510597 438.53840276830533 576.1675208443642 527.9986354908635C537.7702148376686 617.4588682134215 451.2907373488566 725.1026323572181 400.3271220653322 712.4071906613444C349.3635067818077 699.7117489654706 374.29648715940687 563.0080293337196 331.5421674834473 467.06051535067036C288.78784780748776 371.1130013676211 176.27276183260648 331.0611797582094 195.1063876207263 251.85912354270755C213.94001340884614 172.6570673272057 340.7919455837673 80.40336425576987 421.9435712664224 86.89064551626103C503.0951969490775 93.37792677675219 552.5042014020655 191.10057568168986 584.6341908974701 282.9980735930653C616.7641803928748 374.8955715044408 614.5648268510597 438.53840276830533 576.1675208443642 527.9986354908635 "></path><path d="M574.3767638220573 289.49822639204C604.7217539010505 376.2903077527835 602.644586667114 436.39742616865556 566.3804643274572 520.8876459621827C530.1163419878003 605.3778657557098 448.4412799150334 707.0414207804065 400.3089765917048 695.0512814009701C352.17667326837613 683.0611420215339 375.7244880694419 553.9520734804356 335.34540837548013 463.3349769408892C294.9663286815184 372.71788040134265 188.70208081635275 334.8911599924538 206.48939406068808 260.0892180111465C224.27670730502348 185.28727602983923 344.0813099146713 98.15877868459427 420.72451194829 104.2856554306137C497.36771398190865 110.41253217663314 544.031773743064 202.7061450312965 574.3767638220573 289.49822639204C604.7217539010505 376.2903077527835 602.644586667114 436.39742616865556 566.3804643274572 520.8876459621827 "></path><path d="M564.1192757114882 295.99831815585844C592.67926637407 377.68498296597 590.7242854480122 434.25638853384953 556.5933467753939 513.7765953983456C522.4624081027757 593.2968022628417 445.59176144605397 688.9801481684386 400.2907700829212 677.6953111054397C354.9897787197883 666.4104740424409 377.15242794432083 544.8960565919955 339.1485882323568 459.6093774959518C301.1447485203928 374.32269839990795 201.1313387649427 338.721079191542 217.87233946549367 268.31925144442926C234.61334016604462 197.9174236973165 347.37061321041904 115.91413207826247 419.50539159500136 121.68060430981012C491.64016997958356 127.44707654135783 535.5592850489063 214.3116533457469 564.1192757114882 295.99831815585844C592.67926637407 377.68498296597 590.7242854480122 434.25638853384953 556.5933467753939 513.7765953983456 "></path><path d="M553.8618181184972 302.4984099196769C580.6368093646678 379.07965817915647 578.8040147464885 432.1153508990435 546.8062597409089 506.6655448345085C514.8085047353293 581.2157387699735 442.74227349465264 670.9188755564707 400.27259409171563 660.3393408099092C357.80291468877857 649.7598060633479 378.5803983367778 535.8400397035552 342.95179860681156 455.88377805101436C307.32319887684525 375.92751639847324 213.56062723111086 342.5509983906302 229.25531538787737 276.549284877712C244.9500035446439 210.54757136479384 350.6599470237449 133.6694854719306 418.28630175929084 139.0755531890066C485.9126564948367 144.48162090608253 527.0868268723268 225.91716166019728 553.8618181184972 302.4984099196769C580.6368093646678 379.07965817915647 578.8040147464885 432.1153508990435 546.8062597409089 506.6655448345085 "></path><path d="M543.6043757842954 308.9985474598625C568.5943676140545 380.47437916871013 566.8837593037538 429.97435904060467 537.019187965213 499.5545400470387C507.1546166266719 569.1347210534727 439.89280080204037 652.85764872087 400.2544333592991 642.983416290746C360.61606591655794 633.1091838606221 380.00838398802387 526.7840685914823 346.7550242400554 452.15822438244413C313.50166449208683 377.53238017340584 225.98993095606806 346.38096336608555 240.63830656905014 284.77936408736196C255.28668218203222 223.1777648086383 353.94929609585984 151.42488464196595 417.0672271823694 156.4705478445702C480.1851582688788 161.5162110471744 518.6143839545362 237.52271575101486 543.6043757842954 308.9985474598625C568.5943676140545 380.47437916871013 566.8837593037538 429.97435904060467 537.019187965213 499.5545400470387 "></path><path d="M533.3469639676716 315.4986392236809C556.5519563810194 381.8690543818966 554.9635343785974 427.83332140579864 527.232146707095 492.4434894832018C499.50075903559264 557.0536575606047 437.0433586270062 634.7963761089022 400.23630314446086 625.6274459952157C363.4292476619154 616.4585158815291 381.4364001568481 517.7280517030423 350.5582803908773 448.4326249375067C319.68016062490653 379.13719817197114 238.41926519860334 350.21088256517373 252.02132826780104 293.0093975206447C265.6233913369987 235.80791247611558 357.23867568555283 169.18023803563415 415.848183123026 173.86549672376663C474.45769056049903 178.55075541189916 510.14197155432385 249.12822406546525 533.3469639676716 315.4986392236809C556.5519563810194 381.8690543818966 554.9635343785974 427.83332140579864 527.232146707095 492.4434894832018 "></path><path d="M523.0894453395243 321.9987309874993C544.5094383364608 383.26372959508296 543.0432026419173 425.6922837709926 517.4449986374536 485.3324389193647C491.84679463298994 544.9725940677367 434.19380964044865 616.7351034969344 400.21806611809905 608.2714756996853C366.24232259574944 599.8078479024362 382.86430951414883 508.67203481460206 354.3614297301758 444.7070254925693C325.85854994620274 380.74201617053643 250.84849262961524 354.0408017642619 263.40424315502844 301.2394309539274C275.9599936804417 248.43806014359285 360.5279484637225 186.9355914293023 414.6290322521592 191.26044560296305C468.73011604059593 195.58529977662386 501.6694523425879 260.73373237991564 523.0894453395243 321.9987309874993C544.5094383364608 383.26372959508296 543.0432026419173 425.6922837709926 517.4449986374536 485.3324389193647 "></path><path d="M512.8320030053225 328.4988685276849C532.4669965858475 384.6584505846366 531.1229471991827 423.5512919125538 507.6579268617577 478.22143413189485C484.19290652433256 532.8915763512359 431.3443369478364 598.6738766613337 400.1999053856826 590.915551180522C369.0554738235288 583.1572256997104 384.2922951653949 499.6160637025291 358.1646553634196 440.9814718239991C332.0370155614443 382.346879945469 263.27779635457244 357.87076673971734 274.7872343362012 309.46951016357735C286.29667231783003 261.06825358743737 363.8172975358374 204.69099059933768 413.4099576752377 208.6554402585267C463.00261781463803 212.61988991771574 493.19700942479744 272.3392864707332 512.8320030053225 328.4988685276849C532.4669965858475 384.6584505846366 531.1229471991827 423.5512919125538 507.6579268617577 478.22143413189485 "></path><path d="M502.5745606711205 334.99894503271423C520.4245548352342 386.053110539034 519.2026917564481 421.4102390189587 497.87085508606174 471.1103683092688C476.5390184156753 520.8104975995789 428.4948642552242 580.6125887905769 400.18174465326615 573.5595656262026C371.86862505130813 566.5065424618283 385.720280816641 490.56003155529993 361.96788099666344 437.2558571202726C338.2154811766859 383.9516826852452 275.70710007952965 361.70067068001646 286.170225517374 317.699528338071C296.6333509552183 273.6983859961256 367.1066466079523 222.44632873421676 412.19088309831625 226.05037387893407C457.2751195886801 229.65441902365137 484.7245665070069 283.94477952639454 502.5745606711205 334.99894503271423C520.4245548352342 386.053110539034 519.2026917564481 421.4102390189587 497.87085508606174 471.1103683092688 "></path><path d="M492.31710307812955 341.49903679653266C508.3820978258319 387.4477857522204 507.2824210549244 419.26920138415267 488.0837680515766 463.99931774543177C468.88511504822884 508.72943410671076 425.64537630382284 562.5513161786091 400.16356866206064 556.2035953306722C374.6817610202984 549.8558744827353 387.14825120909796 481.5040146668598 365.7710913711182 433.5302576753352C344.3939315331384 385.55650068381055 288.13638854569774 365.5305898791047 297.5532014397577 325.92956177135375C306.9700143338176 286.32853366360285 370.3959804212782 240.2016821278849 410.97179326260573 243.4453227581305C451.5476061039333 246.68896338837607 476.2521083304273 295.55028784084493 492.31710307812955 341.49903679653266C508.3820978258319 387.4477857522204 507.2824210549244 419.26920138415267 488.0837680515766 463.99931774543177 "></path><path d="M482.0596454851386 347.9991590779292C496.33964081642955 388.842491482985 495.3621503534007 417.12819426692477 478.2966810170915 456.8882976991729C461.2312116807824 496.64840113142077 422.7958883524215 544.4900740842193 400.14539267085513 538.8476555527199C377.4948969892887 533.2052370212205 388.57622160155495 472.4480282959978 369.57430174557294 429.8046887479759C350.57238188959093 387.161349199954 300.5656770118659 369.360539595771 308.9361773621414 334.1596257222146C317.30667771241684 298.95871184865825 373.68531423460405 257.95706603913123 409.7527034268952 260.8403021549051C445.8200926191863 263.7235382706789 467.7796501538477 307.15582667287345 482.0596454851386 347.9991590779292C496.33964081642955 388.842491482985 495.3621503534007 417.12819426692477 478.2966810170915 456.8882976991729 "></path><path d="M471.8021726333586 354.4992661005367C484.2971685482382 390.23718195496053 483.4418643930878 414.9871718909078 468.5095787238174 449.7772623941248C453.5772930545469 484.56735289734183 419.9463851422311 526.4288167310405 400.1272014208605 521.4917005159784C380.30801769948994 516.5545843009165 390.00417673522287 463.3920266663466 373.3774968612386 426.07910456182753C356.7508169872543 388.7661824573084 312.99495021924497 373.19047405364824 320.319138025736 342.38967441428645C327.64332583222705 311.58887477492465 376.97463278914086 275.71243469158844 408.5335983323956 278.23526629289057C440.09256387565034 280.7580978941927 459.307176718479 318.7613502461129 471.8021726333586 354.4992661005367C484.2971685482382 390.23718195496053 483.4418643930878 414.9871718909078 468.5095787238174 449.7772623941248 "></path><path d="M461.5447302991567 360.9993731231442C472.2547267976249 391.631872426936 471.5216089503532 412.84614951489084 458.72250694812135 442.66622708907687C445.9234049458895 472.4863046632629 417.09691244961886 508.36755937786165 400.10904068844405 504.13574547923713C383.12116892726925 499.9039315806126 391.4321623864689 454.33602503669556 377.18072249448244 422.3535203756792C362.9292826024959 390.37101571466275 325.4242539442022 377.0204085115255 331.70212920690875 350.61972310635826C337.9800044696154 324.219037701191 380.2639818612558 293.4678033440457 407.31452375547417 295.63023043087605C434.3650656496925 297.79265751770646 450.83473380068847 330.36687381935235 461.5447302991567 360.9993731231442C472.2547267976249 391.631872426936 471.5216089503532 412.84614951489084 458.72250694812135 442.66622708907687 "></path><path d="M451.2872727061657 367.4994648869626C460.21226978822256 393.02654764012243 459.6013382488295 410.7051118800848 448.93541991363634 435.55517652523986C438.2695015784431 460.4052411703949 414.2474244982176 490.3062867658939 400.09086469723854 486.77977518370676C385.9343048962595 483.2532636015196 392.86013277892596 445.28000814825543 380.9839328689372 418.62792093074177C369.1077329589484 391.9758337132281 337.85354241037027 380.85032771061367 343.08510512929246 358.84975653964096C348.31666784821465 336.84918536866826 383.55331567458165 311.22315673771385 406.0954339197636 313.02517931007253C428.63755216494553 314.82720188243115 442.3622756241089 341.97238213380274 451.2872727061657 367.4994648869626C460.21226978822256 393.02654764012243 459.6013382488295 410.7051118800848 448.93541991363634 435.55517652523986 "></path><path d="M441.0298151131748 373.99958716835914C448.16981277882024 394.42125337088703 447.6810675473058 408.5641047628569 439.1483328791512 428.444156478981C430.61559821099667 448.3242081951049 411.3979365468162 472.24504467150416 400.07268870603303 469.42383540575446C388.7474408652498 466.60262614000476 394.28810317138294 436.22402177739343 384.78714324339194 414.9023520033825C375.28618331540093 393.5806822293715 350.2828308765384 384.68027742728003 354.46808105167617 367.07982049050185C358.6533312268139 349.47936355372366 386.84264948790747 328.9785406489601 404.8763440840531 330.4201587068471C422.9100386801986 331.861776764734 433.8898174475293 353.57792096583125 441.0298151131748 373.99958716835914C448.16981277882024 394.42125337088703 447.6810675473058 408.5641047628569 439.1483328791512 428.444156478981 "></path><path d="M430.7723727789729 380.49969419096664C436.127371028207 395.81594384286257 435.76081210457113 406.42308238683995 429.3612611034552 421.33312117393297C422.9617101023393 436.243159961026 408.548463854204 454.18378731832536 400.0545279736166 452.0678803690131C391.56059209302913 449.95197341970083 395.716088822629 427.1680201477423 388.59036887663575 411.1767678172341C381.4646489306425 395.18551548672593 362.7121346014956 388.5102118851573 365.85107223284894 375.30986918257366C368.9900098642022 362.10952647999 390.1319985600224 346.7339093014174 403.6572695071316 347.81512284483256C417.1825404542408 348.89633638824773 425.41737452973877 365.1834445390707 430.7723727789729 380.49969419096664C436.127371028207 395.81594384286257 435.76081210457113 406.42308238683995 429.3612611034552 421.33312117393297 "></path><path d="M420.5149151859819 386.999785954785C424.0849140188047 397.210619056049 423.84054140304744 404.2820447520339 419.57417406897014 414.22207061009595C415.3078067348929 424.1620964681579 405.69897590280266 436.12251470635755 400.036351982411 434.7119100734827C394.37372806201944 433.30130544060785 397.144059215086 418.1120032593022 392.3935792510905 407.4511683722967C387.64309928709497 396.7903334852912 375.14142306766377 392.34013108424546 377.2340481552326 383.53990261585636C379.32667324280146 374.7396741474673 393.42133237334826 364.48926269508553 402.43817967142104 365.210071724029C411.4550269694939 365.9308807529725 416.9449163531592 376.7889528535211 420.5149151859819 386.999785954785C424.0849140188047 397.210619056049 423.84054140304744 404.2820447520339 419.57417406897014 414.22207061009595 "></path><path d="M410.25745759299093 393.4998929773925C412.0424570094023 398.60530952802446 411.9202707015237 402.14102237601696 409.78708703448507 407.11103530504795C407.65390336744645 412.081048234079 402.84948795140133 418.0612573531788 400.0181759912055 417.35595503674136C397.1868640310097 416.6506527203039 398.572029607543 409.05600162965106 396.19678962554525 403.72558418614835C393.8215496435475 398.39516674264564 387.57071153383185 396.17006554212276 388.6170240776163 391.7699513079282C389.66333662140073 387.36983707373366 396.71066618667413 382.2446313475428 401.2190898357105 382.6050358620145C405.7275134847469 382.96544037648624 408.4724581765796 388.39447642676055 410.25745759299093 393.4998929773925C412.0424570094023 398.60530952802446 411.9202707015237 402.14102237601696 409.78708703448507 407.11103530504795 "></path></g></svg>